PathFileType	4	(X/Y/Z)
DataRate	CameraRate	NumFrames	NumMarkers	Units	OrigDataRate	OrigDataStartFrame	OrigNumFrames	
  100.0	  100.0	     6	     56	     mm	  100.0	      33	     86
Frame#	Time	LASI			RASI			LPSI			RPSI			RTH1			RTH2			RTH3			RLFC			RMFC			LTH1			LTH2			LTH3			LLFC			LMFC			RTB1			RTB2			RTB3			RLMAL			RMMAL			LTB1			LTB2			LTB3			LMMAL			LLMAL			RCAL			RTOE			RMT5			LCAL			LTOE			LMT5			LACR			RACR			CLAV			C7			LASH			LPSH			RASH			RPSH			RUA1			RUA2			RUA3			RLEL			RMEL			LUA1			LUA2			LUA3			LLEL			LMEL			RFAsuperior			RFAradius			RFAulna			LFAsuperior			LFAradius			LFAulna			RHJC			LHJC			
		X1	Y1	Z1	X2	Y2	Z2	X3	Y3	Z3	X4	Y4	Z4	X5	Y5	Z5	X6	Y6	Z6	X7	Y7	Z7	X8	Y8	Z8	X9	Y9	Z9	X10	Y10	Z10	X11	Y11	Z11	X12	Y12	Z12	X13	Y13	Z13	X14	Y14	Z14	X15	Y15	Z15	X16	Y16	Z16	X17	Y17	Z17	X18	Y18	Z18	X19	Y19	Z19	X20	Y20	Z20	X21	Y21	Z21	X22	Y22	Z22	X23	Y23	Z23	X24	Y24	Z24	X25	Y25	Z25	X26	Y26	Z26	X27	Y27	Z27	X28	Y28	Z28	X29	Y29	Z29	X30	Y30	Z30	X31	Y31	Z31	X32	Y32	Z32	X33	Y33	Z33	X34	Y34	Z34	X35	Y35	Z35	X36	Y36	Z36	X37	Y37	Z37	X38	Y38	Z38	X39	Y39	Z39	X40	Y40	Z40	X41	Y41	Z41	X42	Y42	Z42	X43	Y43	Z43	X44	Y44	Z44	X45	Y45	Z45	X46	Y46	Z46	X47	Y47	Z47	X48	Y48	Z48	X49	Y49	Z49	X50	Y50	Z50	X51	Y51	Z51	X52	Y52	Z52	X53	Y53	Z53	X54	Y54	Z54	X55	Y55	Z55	X56	Y56	Z56	

245	2.45000	729.17418	1022.28492	-610.33613	484.36891	1024.45247	-598.87721	647.87343	1046.45929	-771.74642	550.83757	1044.04134	-770.42132	408.26976	787.04557	-675.79031	413.63997	697.95124	-626.88854	422.20968	610.62476	-701.03708	417.83291	515.54948	-723.21373	525.45407	491.52403	-691.27181	791.46463	826.60926	-666.25851	792.71883	719.14576	-625.53176	784.11256	613.37764	-696.17643	786.09468	527.12287	-687.08416	673.55504	507.42181	-682.00178	451.54680	387.64705	-679.00686	400.82776	321.61657	-727.47429	448.24787	202.56863	-705.59104	412.01565	125.80208	-764.97065	485.09619	137.74658	-729.90406	751.96769	405.45729	-662.20677	809.41812	338.09309	-729.43537	762.65103	219.27706	-688.56029	728.68016	132.49682	-695.02416	800.14314	119.58987	-748.49399	466.73151	108.15045	-813.31497	465.10436	70.93906	-593.23575	368.21298	45.72466	-644.33374	745.52904	107.09366	-797.21572	772.16549	71.40153	-580.39463	860.57673	47.30027	-637.74163	755.35255	1494.51064	-714.61715	458.83281	1499.14486	-696.68918	592.14792	1442.68026	-607.18200	600.37244	1516.64791	-760.23064	764.39131	1436.79183	-649.46986	762.15094	1435.41767	-791.35781	456.63200	1443.09281	-638.39011	428.54447	1444.01649	-769.46845	359.92579	1373.64905	-699.51194	370.34874	1288.36390	-736.26208	326.91471	1240.75765	-662.03841	309.54208	1170.25170	-670.44407	372.12913	1149.92911	-692.92229	842.85730	1360.40987	-734.28562	815.33632	1281.39396	-757.45308	878.23717	1258.83372	-698.23046	904.96212	1177.75091	-693.10671	846.28621	1151.22841	-714.33495	286.29145	1103.87109	-580.10637	325.17584	1000.58770	-485.14480	297.16829	970.36274	-544.25342	917.11316	1122.57260	-592.32485	892.88294	997.01070	-504.53589	921.00978	966.47366	-563.15277	508.71566	936.88283	-651.34726	684.64932	948.62817	-672.20037	
246	2.46000	729.26641	1022.22841	-609.97673	484.48563	1024.34996	-598.49098	648.07983	1046.50840	-771.47058	551.07769	1044.02671	-770.15859	408.39584	786.99694	-675.67272	413.68987	697.88874	-626.82564	422.24476	610.61492	-700.92540	418.01120	515.54942	-723.31697	525.51741	491.45726	-691.26740	791.64824	826.60023	-665.92885	792.79359	719.08170	-625.31489	784.26690	613.39105	-696.06668	786.20794	527.12917	-686.96876	673.62027	507.44040	-681.90378	451.57093	387.63851	-679.03105	400.85340	321.64893	-727.51340	448.27316	202.56312	-705.65217	412.04725	125.78487	-765.07447	485.11093	137.72536	-729.93624	752.03509	405.47466	-662.10307	809.51925	338.09714	-729.34831	762.74112	219.27378	-688.50203	728.73466	132.52608	-695.07905	800.19946	119.61412	-748.54439	466.76804	108.12710	-813.35631	465.13695	70.95284	-593.28580	368.27776	45.69046	-644.39120	745.57732	107.10812	-797.27984	772.05794	71.48173	-580.29474	860.63225	47.34525	-637.81784	755.58700	1494.12613	-713.74934	458.28255	1498.73993	-695.47493	591.95603	1442.42979	-606.36567	600.18260	1516.66076	-759.36055	764.63474	1435.88641	-648.64305	761.93402	1435.40232	-790.77606	456.08407	1442.26420	-637.46956	428.41553	1443.90340	-768.72068	360.78912	1371.56112	-699.77290	372.49850	1287.27034	-738.75593	331.27671	1236.54576	-665.05053	315.79108	1165.98088	-675.11591	378.47409	1148.00755	-699.12865	841.81696	1358.64030	-734.80183	811.74829	1280.66739	-760.04757	873.40622	1254.97997	-700.69367	897.87203	1173.15201	-697.03158	838.53295	1148.78616	-719.09784	294.56515	1096.33251	-586.56386	336.40375	990.95303	-495.30957	308.72420	961.90527	-555.25630	908.09219	1115.31163	-597.61863	880.99279	988.47851	-512.67129	907.60157	958.32936	-572.42749	508.85810	936.82653	-651.12715	684.80649	948.59109	-671.84265	
247	2.47000	729.35338	1022.17210	-609.59587	484.59347	1024.25664	-598.10792	648.19831	1046.58846	-771.12216	551.22653	1044.02929	-769.82303	408.47599	786.96015	-675.54522	413.72377	697.82353	-626.77112	422.23726	610.62153	-700.80959	418.10080	515.54591	-723.37437	525.56308	491.38134	-691.24849	791.77890	826.58464	-665.58354	792.86006	719.03041	-625.02827	784.36239	613.40169	-695.89991	786.28083	527.12692	-686.80869	673.66784	507.46849	-681.75348	451.58956	387.60930	-679.05064	400.87274	321.64811	-727.52585	448.29296	202.53694	-705.70868	412.02569	125.76771	-765.12139	485.08403	137.70044	-729.95142	752.10130	405.47996	-661.99703	809.58695	338.09899	-729.25585	762.82114	219.28185	-688.43776	728.74353	132.53128	-695.05829	800.21013	119.61429	-748.51917	466.76557	108.11735	-813.38888	465.13620	70.96800	-593.30332	368.28463	45.67499	-644.40683	745.58956	107.11929	-797.32190	772.04956	71.50453	-580.25292	860.63554	47.34392	-637.79392	755.73450	1493.77508	-712.83539	457.71756	1498.46311	-694.35362	591.76801	1442.18169	-605.54650	599.93016	1516.74360	-758.39718	764.77639	1434.98479	-647.80373	761.69257	1435.45830	-790.25331	455.42200	1441.59734	-636.57802	428.32075	1443.90920	-768.00504	361.48681	1369.74969	-700.33067	374.42064	1286.46836	-741.26255	335.43510	1232.80873	-667.84501	321.82366	1162.24573	-679.45591	384.50650	1146.59594	-704.71719	840.77174	1357.11341	-735.19714	808.51494	1280.18262	-762.67121	868.69466	1251.56008	-703.21763	890.99293	1169.09972	-700.89400	831.15443	1146.82019	-723.77901	302.69902	1089.48292	-592.87205	347.35351	982.15059	-505.37078	320.02652	954.34066	-566.10174	899.32128	1108.71232	-602.91275	869.24915	980.76163	-520.76599	894.44800	951.14850	-581.61411	508.97366	936.77655	-650.84353	684.92597	948.56995	-671.50853	
248	2.48000	729.42712	1022.14198	-609.21302	484.66841	1024.15199	-597.77425	648.23557	1046.68715	-770.69061	551.27875	1044.05775	-769.41817	408.50577	786.93635	-675.38876	413.76005	697.76098	-626.71637	422.17623	610.64313	-700.66193	418.09264	515.53704	-723.37416	525.59140	491.32098	-691.23053	791.84364	826.57268	-665.26260	792.91446	719.00018	-624.72212	784.39785	613.40486	-695.68032	786.31728	527.12387	-686.62185	673.70770	507.52976	-681.56404	451.60499	387.57145	-679.06797	400.87794	321.61334	-727.53011	448.30956	202.50214	-705.76293	411.95079	125.74759	-765.08290	485.02745	137.68310	-729.95109	752.16815	405.47699	-661.88772	809.61601	338.10141	-729.15920	762.85485	219.28713	-688.37448	728.70999	132.52237	-694.98774	800.17838	119.60036	-748.44420	466.71944	108.11986	-813.39644	465.10169	70.97778	-593.28709	368.22852	45.67508	-644.37783	745.55867	107.12075	-797.30079	772.11930	71.44926	-580.30262	860.58952	47.30034	-637.69272	755.80013	1493.51026	-711.88465	457.13488	1498.27443	-693.32263	591.59543	1441.94810	-604.73596	599.60858	1516.88296	-757.35708	764.75802	1434.14236	-646.98409	761.43385	1435.62986	-789.65046	454.74456	1441.06752	-635.66687	428.23273	1444.00474	-767.26529	362.13336	1368.21529	-700.99392	376.10256	1285.87837	-743.76497	339.54484	1229.45610	-670.48177	327.59908	1158.96656	-683.47481	390.45371	1145.48205	-709.40330	839.75237	1355.85195	-735.46248	805.69473	1280.05039	-765.14584	864.17548	1248.59052	-705.68276	884.35316	1165.59227	-704.64043	824.13693	1145.35626	-728.30934	310.60278	1083.25653	-599.07388	357.86950	974.18051	-515.21964	330.86868	947.70567	-576.71668	890.95398	1102.77478	-608.11472	857.76266	973.86330	-528.77547	881.57539	944.89806	-590.61520	509.06863	936.71580	-650.52934	685.01433	948.58139	-671.21031	
249	2.49000	729.48094	1022.13342	-608.85934	484.71758	1024.03972	-597.49341	648.22729	1046.79079	-770.20264	551.26053	1044.11377	-768.97726	408.49873	786.92573	-675.20876	413.81650	697.70755	-626.67363	422.06443	610.67030	-700.47471	418.02314	515.53206	-723.32569	525.60757	491.29394	-691.23855	791.85680	826.57980	-664.99331	792.94070	718.98836	-624.45238	784.38403	613.40109	-695.41228	786.32514	527.13646	-686.45036	673.75484	507.63860	-681.38114	451.62512	387.55578	-679.08787	400.87225	321.58184	-727.55231	448.33086	202.48951	-705.81974	411.84437	125.72782	-764.98220	484.96216	137.68195	-729.94116	752.22690	405.47388	-661.78046	809.61257	338.11249	-729.06281	762.84309	219.29361	-688.31105	728.65224	132.52495	-694.92679	800.12242	119.59793	-748.37884	466.64681	108.12686	-813.37842	465.04500	70.98435	-593.25281	368.12821	45.69049	-644.32549	745.49591	107.11850	-797.23532	772.13562	71.39066	-580.36257	860.51536	47.25973	-637.60507	755.80818	1493.35393	-710.93658	456.54339	1498.13250	-692.35386	591.43931	1441.74196	-603.93797	599.23951	1517.04474	-756.30402	764.64148	1433.44444	-646.17580	761.19326	1435.93016	-788.94867	454.15995	1440.66157	-634.73181	428.11848	1444.15917	-766.46399	362.90686	1366.95834	-701.50195	377.49763	1285.50397	-746.19840	343.75718	1226.41867	-673.03247	333.10156	1156.10480	-687.22922	396.35360	1144.63211	-713.40231	838.80505	1354.85986	-735.65892	803.29350	1280.29965	-767.48014	859.91873	1246.05836	-707.94204	877.97281	1162.60505	-708.24752	817.44493	1144.40862	-732.62803	318.14311	1077.67437	-605.12752	367.79755	967.07718	-524.73932	341.04333	942.03725	-586.91399	883.04646	1097.50499	-613.18530	846.76004	967.79961	-536.60711	869.12466	939.52249	-599.41247	509.14539	936.64921	-650.21905	685.07827	948.61705	-670.95169	
250	2.50000	729.51062	1022.12045	-608.53257	484.76143	1023.93986	-597.24706	648.21065	1046.89161	-769.71174	551.20503	1044.19093	-768.54180	408.48740	786.93151	-675.04759	413.90029	697.66624	-626.65645	421.92891	610.69052	-700.28807	417.94383	515.54042	-723.26011	525.62107	491.29713	-691.27928	791.84818	826.61029	-664.77068	792.94135	718.99025	-624.23112	784.33845	613.39570	-695.10196	786.31042	527.16927	-686.31365	673.82382	507.75379	-681.24390	451.66082	387.58115	-679.11195	400.87296	321.58963	-727.60189	448.36774	202.51791	-705.88075	411.74348	125.71958	-764.87627	484.90663	137.69664	-729.92659	752.26297	405.47290	-661.68096	809.58909	338.13491	-728.96946	762.80940	219.31215	-688.24685	728.58998	132.55522	-694.90949	800.06195	119.62320	-748.35711	466.57543	108.13340	-813.35060	464.98322	70.99561	-593.22019	368.01760	45.72359	-644.27813	745.42484	107.12379	-797.18263	772.02161	71.41011	-580.33482	860.43917	47.26351	-637.59901	755.78006	1493.29097	-710.02847	455.98379	1498.01648	-691.41221	591.29944	1441.56346	-603.15338	598.86924	1517.20452	-755.30592	764.55807	1432.94586	-645.34713	760.99372	1436.33714	-788.22214	453.75087	1440.35360	-633.78476	427.95169	1444.35599	-765.61109	363.90154	1365.93770	-701.67323	378.58320	1285.39061	-748.48559	348.03341	1223.70373	-675.49239	338.32038	1153.66173	-690.77649	401.94473	1144.14989	-717.18649	837.96596	1354.12584	-735.85816	801.28021	1280.86178	-769.75044	855.97081	1243.93223	-709.89350	871.88600	1160.09110	-711.70869	811.08815	1143.95432	-736.71963	325.17268	1072.79168	-610.93665	377.00491	960.86847	-533.80212	350.35298	937.34702	-596.42413	875.58095	1092.90546	-618.11864	836.48689	962.56776	-544.15571	857.35060	934.96837	-608.12022	509.19983	936.59359	-649.92853	685.11912	948.65454	-670.72339	
